<svg id="vector" xmlns="http://www.w3.org/2000/svg" width="24" height="24" viewBox="0 0 960 960"><g transform="translate(38.4, 38.4) scale(0.92, 0.92)" id="g_0"><path fill="#fff" d="M160,800q-33,0 -56.5,-23.5T80,720v-480q0,-33 23.5,-56.5T160,160h640q33,0 56.5,23.5T880,240v480q0,33 -23.5,56.5T800,800L160,800ZM160,720h640v-480L160,240v480ZM160,720v-480,480Z"/><path fill="#fff" d="m643.92,652.56 l23.42,-18.16 -187.34,-326.96 -187.34,326.96 23.42,18.17 163.92,-54.49zM594.74,596.25 L480,558.1 365.26,596.25 480,396.44z" stroke-width=".51561"/></g></svg>